<svg height="30.883" width="31.515" xmlns="http://www.w3.org/2000/svg"><g fill="#1e8be8"><path d="m188.456 420.41a1.914 1.914 0 0 0 -2.449.069l-20.77 18.238a1.919 1.919 0 0 0 -.531 2.114c.689 1.846 2.223 4.962 4.545 4.245 8.49-2.621 16.993-5.2 25.49-7.795a1.915 1.915 0 0 0 1.358-1.852 19.4 19.4 0 0 0 -7.643-15.019zm3.092 12.757c-.743.5-4.373-6.761-3.63-7.266s2.525.212 3.527 2.219.846 4.542.103 5.047z" transform="translate(-164.585 -420)"/><path d="m207.254 507.524-6.485 2a.612.612 0 0 0 -.224 1.043l5.389 4.756a.612.612 0 0 0 1.008-.36l1.1-6.757a.613.613 0 0 0 -.788-.682z" transform="translate(-190.98 -484.597)"/></g></svg>