<svg height="73.82" viewBox="0 0 75.33 73.82" width="75.33" xmlns="http://www.w3.org/2000/svg"><g fill="#fff" transform="translate(-320.676 -324.353)"><path d="m377.737 325.333a4.575 4.575 0 0 0 -5.855.164l-49.645 43.6a4.588 4.588 0 0 0 -1.27 5.053c1.647 4.414 5.313 11.86 10.865 10.146 20.293-6.264 40.618-12.426 60.929-18.632a4.579 4.579 0 0 0 3.246-4.426c-.084-6.99-2.178-23.144-18.27-35.905zm7.391 30.493c-1.775 1.207-10.453-16.16-8.677-17.368s6.035.507 8.431 5.3 2.018 10.861.246 12.068z"/><path d="m446.069 590.834-15.5 4.785a1.462 1.462 0 0 0 -.536 2.494l12.881 11.37a1.461 1.461 0 0 0 2.41-.862l2.626-16.151a1.466 1.466 0 0 0 -1.881-1.636z" transform="translate(-86.494 -211.678)"/></g></svg>